<svg version="1.1" id="Layer_1" xmlns="http://www.w3.org/2000/svg" xmlns:xlink="http://www.w3.org/1999/xlink" x="0px" y="0px"
	 width="100%" viewBox="0 0 640 640" enable-background="new 0 0 640 640" xml:space="preserve">
<path fill="#000000" opacity="1.000000" stroke="none" 
	d="
M122.978424,288.758820 
	C121.499420,285.526184 120.018852,282.683319 120.988144,279.333862 
	C121.721695,276.799042 119.452621,276.290802 118.093346,275.289734 
	C111.160660,270.184021 104.876411,264.522888 101.861954,256.142883 
	C100.524849,252.425827 98.888741,248.711395 101.818245,244.789139 
	C103.415253,242.650925 101.287636,241.033661 99.990463,239.681030 
	C93.842842,233.270538 91.772285,225.475021 91.586716,216.849991 
	C91.502419,212.931931 92.295235,210.211700 97.144951,210.490997 
	C87.563446,179.961838 89.865135,151.468857 108.293274,125.013603 
	C111.646988,126.282166 112.177025,128.589676 113.144150,130.382660 
	C125.528854,153.343002 144.256241,169.931381 167.113281,181.443405 
	C180.322449,188.096252 193.708221,194.472351 206.923203,201.162216 
	C221.254990,208.417404 233.144577,218.111145 239.988708,233.158081 
	C241.696106,236.911819 244.402618,240.142365 247.300751,243.072449 
	C253.569702,239.384842 254.329575,237.640854 252.891586,230.471649 
	C249.075211,211.444946 251.456924,193.444199 260.135864,175.875961 
	C268.133728,159.686295 269.368500,163.376587 255.641418,149.323502 
	C240.828964,134.159286 222.645020,123.546616 203.602966,114.435005 
	C201.570831,113.462624 199.073181,113.058739 197.879730,110.050873 
	C202.184006,107.079903 207.169022,106.695374 212.020767,106.988449 
	C222.375366,107.613953 232.399338,110.006721 242.098557,113.767418 
	C251.829773,117.540543 261.617462,121.168121 271.354584,124.849724 
	C271.924408,123.955154 272.424683,123.538353 272.400543,123.154556 
	C271.444305,107.955032 280.680359,98.398460 291.239807,89.843758 
	C299.768494,82.934288 309.877258,78.962982 320.352356,75.891846 
	C323.418060,74.993042 326.319641,74.660004 328.722748,77.109726 
	C331.013916,79.445335 330.507477,82.291367 329.645660,85.095123 
	C329.357635,86.032188 329.112152,86.982338 328.786682,88.142204 
	C331.715149,89.267029 334.197571,87.799080 336.683807,87.341263 
	C342.459198,86.277779 344.180481,87.655617 344.352539,93.626999 
	C344.435425,96.503021 343.264771,99.078041 342.559967,101.981110 
	C345.917969,103.119843 349.091949,102.533195 352.192505,102.618301 
	C359.417206,102.816620 360.080627,103.552040 358.898621,110.519882 
	C358.766541,111.298378 358.736938,112.094254 358.645142,113.032356 
	C362.453949,114.242722 366.126404,113.464218 369.721069,113.684875 
	C375.534180,114.041702 376.976440,116.043243 374.396301,121.334480 
	C371.633759,126.999886 368.791412,132.734985 362.685089,135.999695 
	C364.650696,140.875198 368.287079,144.188950 370.913513,148.152557 
	C380.423859,162.504822 386.184784,178.344803 390.460968,194.897537 
	C394.208130,209.402496 398.419067,223.794662 404.939209,237.371048 
	C405.776398,239.114288 406.225464,241.184692 408.416138,242.318954 
	C412.178802,239.471497 414.941467,235.696030 417.016663,231.595306 
	C424.590607,216.628616 437.123566,206.996399 451.322510,199.118698 
	C464.134216,192.010635 477.228058,185.388153 489.830688,177.931610 
	C509.880646,166.068771 525.758179,149.979324 536.760620,129.274857 
	C537.660156,127.582176 538.066223,125.424019 540.762817,124.422745 
	C551.458252,135.726746 556.324463,149.797821 559.373535,164.753143 
	C562.440430,179.796082 563.424072,194.743698 557.153870,209.197815 
	C563.939087,212.459305 565.319214,217.438080 562.736084,226.677582 
	C561.041138,232.740005 557.232239,237.609039 553.678162,242.990540 
	C557.924500,246.191589 557.258606,249.968018 555.750610,254.212097 
	C552.846191,262.386017 547.465698,268.583893 540.872375,273.841278 
	C538.474182,275.753601 537.515381,277.280609 538.004150,280.778992 
	C538.845276,286.800293 534.513123,291.311218 531.047668,295.719818 
	C526.526917,301.470886 520.438416,305.269348 513.803528,308.200317 
	C511.911011,309.036346 510.143738,309.845184 510.342529,312.428589 
	C510.759674,317.848907 507.632996,321.559540 503.921936,324.777649 
	C499.078369,328.977844 493.767365,332.309998 487.013153,332.509613 
	C485.215118,332.562714 483.123383,332.645935 481.850128,334.066376 
	C475.185394,341.501678 464.945221,342.253021 457.072510,347.442993 
	C454.880829,348.887878 452.050079,348.835236 449.309021,348.635590 
	C442.836395,348.164093 438.297241,351.582489 437.570709,357.811676 
	C435.623657,374.505981 430.223114,389.877960 420.606781,403.697968 
	C418.867798,406.197174 418.549072,408.578003 419.225250,411.618195 
	C422.195465,424.972229 426.685547,437.863281 430.638794,450.921112 
	C431.694946,454.409607 433.753662,455.125092 436.955200,455.004944 
	C448.289581,454.579590 459.628906,454.774261 470.810944,456.802460 
	C481.018097,458.653870 489.767639,462.685120 494.306488,473.139252 
	C496.901825,479.117035 503.070251,479.139893 508.478577,479.575531 
	C513.191467,479.955170 517.959229,479.654663 522.702209,479.654663 
	C523.534363,481.819061 522.068115,483.256683 521.290100,484.817017 
	C516.606812,494.209290 511.925201,503.603851 507.087494,512.916870 
	C505.524078,515.926514 505.265228,518.540588 506.546326,521.877197 
	C512.451904,537.257996 518.070374,552.750305 523.670837,568.246338 
	C525.656494,573.740601 525.312134,573.950378 519.337524,574.317444 
	C507.872314,575.021973 496.397583,575.666992 484.964111,576.736084 
	C481.373627,577.071777 479.590790,576.075745 478.892151,572.716919 
	C478.824707,572.392639 478.696106,572.080261 478.586121,571.765747 
	C474.221100,559.283691 474.220428,559.213745 460.727783,559.314575 
	C441.219147,559.460449 421.878754,561.967651 402.487640,563.705627 
	C362.286255,567.308838 322.049561,568.486145 281.710632,566.514282 
	C252.278046,565.075562 222.987244,562.047607 193.646759,559.537903 
	C186.364746,558.914978 178.989349,559.438599 171.659805,559.290527 
	C168.643921,559.229553 166.961502,560.496887 166.355377,563.387634 
	C166.185181,564.199341 165.903000,564.987915 165.664886,565.784973 
	C162.322342,576.973328 162.323639,576.949402 150.874481,576.190857 
	C140.912155,575.530823 130.945099,574.942261 120.981979,574.294006 
	C119.851097,574.220459 118.732018,573.965454 117.079475,573.714355 
	C118.182526,566.888733 121.164398,560.923035 123.283951,554.733032 
	C127.004532,543.867432 130.971649,533.078369 135.167953,522.387695 
	C136.655746,518.597412 136.300201,515.549316 134.440598,512.035461 
	C128.930603,501.624054 123.733841,491.046875 118.508080,480.719269 
	C120.251038,478.444000 122.157249,479.160339 123.919952,479.218292 
	C127.911438,479.349487 131.937805,479.877655 135.885849,479.525452 
	C141.611603,479.014740 146.605453,477.647919 149.146057,471.019318 
	C152.283264,462.834076 159.932404,459.497192 167.935822,457.669861 
	C183.843750,454.037750 200.003540,454.431244 216.165726,455.280212 
	C225.970886,455.795258 235.782486,456.189026 245.586670,456.720703 
	C248.715698,456.890381 250.377304,456.036072 250.954346,452.518311 
	C251.846375,447.080444 255.666550,444.461670 260.856293,442.518646 
	C268.252350,439.749573 276.588287,439.533173 283.079376,434.192322 
	C287.969543,430.168793 288.191742,428.719849 283.318878,424.962433 
	C281.761353,423.761444 280.787262,422.276367 280.721161,420.339996 
	C280.512512,414.229370 276.820648,410.154755 273.176819,405.659454 
	C260.988708,390.623322 245.878967,378.310120 233.980911,363.038666 
	C233.366882,362.250549 232.441254,361.587799 232.126846,360.701355 
	C227.930832,348.871582 217.771408,348.675903 207.834839,348.356842 
	C201.372665,348.149323 196.025146,345.510590 192.131622,340.796173 
	C188.077347,335.887146 182.865097,333.967529 177.103867,333.222626 
	C167.946777,332.038696 160.067184,328.777649 154.407547,321.195068 
	C153.419434,319.871216 151.998993,318.414520 151.912857,316.952332 
	C151.550720,310.805328 147.064987,309.045837 142.464081,306.984894 
	C134.057770,303.219299 126.872749,297.995178 122.978424,288.758820 
M327.508820,169.542191 
	C321.266083,164.921799 321.150269,158.679520 322.828033,151.820633 
	C319.352356,155.077850 319.920715,159.287155 320.549164,163.067947 
	C321.182190,166.876221 323.965790,169.371628 328.723694,170.359207 
	C335.110657,171.846710 340.365112,169.890732 342.240387,165.327621 
	C344.360138,160.169464 342.922516,154.374405 338.991211,152.230179 
	C341.809570,165.778900 339.497253,169.519684 327.508820,169.542191 
M365.927368,209.829834 
	C367.015747,209.631699 368.312134,210.115463 369.351837,208.460022 
	C367.088287,202.551147 363.144196,197.384399 358.751892,192.687485 
	C351.149139,184.557510 342.771667,177.884766 330.717621,177.265396 
	C322.948700,176.866196 318.160950,171.456482 315.617371,164.432480 
	C313.166260,157.663803 315.901337,151.831635 320.604218,147.192398 
	C324.778076,143.075043 329.839874,141.964905 335.735535,144.492966 
	C343.782135,147.943359 348.899841,156.465164 347.170013,165.251846 
	C346.700348,167.637390 346.727173,169.298248 348.915222,170.821167 
	C354.518341,174.721069 360.041412,178.742035 365.487457,182.858826 
	C367.989929,184.750473 369.709961,184.323715 371.082123,181.681030 
	C374.272003,175.537476 375.775055,169.415024 372.338593,162.678085 
	C367.457153,153.108170 361.825134,144.143753 353.977783,136.704620 
	C353.032379,135.808395 351.805054,135.034470 352.386169,133.333496 
	C353.861969,131.255035 356.989380,132.711502 358.514038,130.625488 
	C358.388397,128.779800 355.087921,129.555389 355.733337,126.953453 
	C357.706390,125.172379 360.628296,125.480247 362.963104,124.304214 
	C364.435608,123.562508 366.312531,122.883545 366.148682,120.895012 
	C365.974884,118.785713 363.844849,118.267960 362.350067,118.458282 
	C356.542084,119.197762 352.594818,115.391174 347.990967,113.490410 
	C348.221497,110.957230 351.296265,110.609215 350.950409,107.600952 
	C344.078064,106.832314 337.048981,107.397461 329.453491,107.422447 
	C330.997528,104.513100 333.725098,104.032600 335.434479,102.391884 
	C337.817627,100.104469 339.878876,97.186890 338.340790,94.014542 
	C336.735077,90.702599 333.600708,92.921371 331.212433,93.537819 
	C325.388092,95.041138 319.623596,96.776314 312.443512,98.812805 
	C316.836975,92.115776 324.269226,89.105347 324.277924,81.395569 
	C322.335541,80.215996 320.742981,81.091583 319.262360,81.648918 
	C310.826263,84.824402 302.691193,88.610420 295.337433,93.912132 
	C287.872528,99.294014 281.944977,105.926018 278.938782,114.761963 
	C276.465576,122.031258 278.456512,128.268448 283.823029,129.489838 
	C300.663910,133.322784 304.971191,147.554703 310.354675,160.943466 
	C310.433075,161.138443 310.081299,161.506393 309.863861,161.920029 
	C307.662445,162.341248 305.575134,163.287109 303.464844,164.267593 
	C294.396423,168.481003 285.183868,171.692001 275.179718,167.191772 
	C272.241486,165.870041 270.559357,167.212173 269.402618,169.962387 
	C263.989410,182.832764 256.064056,194.727936 257.721283,209.967087 
	C258.522308,217.332932 257.752350,224.776199 260.991394,231.827209 
	C261.844696,233.684662 263.073395,236.254150 260.649719,238.272141 
	C254.033798,243.780655 250.352142,251.295547 246.970474,258.901917 
	C241.016693,272.293732 237.632828,286.102448 238.993225,301.063293 
	C240.067505,312.877502 242.289017,324.449738 244.445877,336.044128 
	C248.322495,356.883118 254.800842,376.622345 269.225159,392.983948 
	C275.799500,400.441284 282.941772,407.509583 287.179291,416.835022 
	C288.675537,420.127869 298.487823,422.851837 300.419159,420.695221 
	C302.791809,418.045807 304.537506,419.112579 306.890228,420.288025 
	C311.167786,422.425232 315.416046,425.974731 320.320221,424.922180 
	C329.589966,422.932770 337.904755,424.231354 346.362549,428.455902 
	C357.377075,433.957428 368.936829,429.294189 374.010956,418.180542 
	C374.841675,416.361023 375.278778,414.047302 378.404602,413.488525 
	C378.253082,416.852356 378.046265,419.806458 378.003571,422.762939 
	C377.933868,427.585968 378.676666,428.079285 383.137695,426.484955 
	C387.213440,425.028320 391.531586,423.158569 395.655670,425.043945 
	C398.744934,426.456238 400.177155,425.467346 401.980804,423.432953 
	C408.812378,415.727295 412.323914,406.371094 414.731934,396.657593 
	C417.693573,384.710907 414.854523,373.201050 410.689545,361.977509 
	C401.552704,337.356262 390.669922,313.359161 386.164551,287.154297 
	C383.999084,274.559113 379.628662,262.270081 380.974121,249.281052 
	C381.370972,245.450455 380.067749,243.756622 376.968201,242.501053 
	C371.567627,240.313400 366.162781,238.132141 360.813599,235.823395 
	C357.055573,234.201416 353.545288,232.177460 350.982086,228.142700 
	C355.004059,227.482452 358.729156,227.864105 361.873566,226.249741 
	C362.519562,224.303604 359.623871,223.374725 360.955872,221.508057 
	C363.693207,219.859329 367.204834,221.963501 369.949921,219.853668 
	C369.039001,217.175278 366.846466,215.746307 365.358032,213.783127 
	C364.434357,212.564865 362.525330,211.261978 365.927368,209.829834 
M142.606705,172.926193 
	C129.297119,163.351227 119.105797,150.737030 109.274338,137.412674 
	C103.551605,145.976913 102.453117,154.525894 104.080948,163.513336 
	C105.895660,173.532623 110.065811,182.481934 116.597321,190.346268 
	C118.045135,192.089523 120.211952,193.579880 120.308357,196.307907 
	C109.088890,194.321381 106.005844,184.130386 100.040894,176.617233 
	C98.302368,180.419327 98.310677,180.418884 98.418602,182.464035 
	C99.316742,199.482574 108.935173,211.588715 121.323776,221.772507 
	C124.274536,224.198120 126.063736,226.970734 128.275146,229.887726 
	C126.114922,230.791107 124.780144,229.469528 123.382919,228.768951 
	C117.726440,225.932800 112.143700,222.949921 106.499580,220.088593 
	C104.487793,219.068665 102.196640,216.961548 100.125481,218.873367 
	C98.043732,220.794937 99.302994,223.545593 100.226555,225.883957 
	C104.249702,236.070160 112.378433,241.936859 121.975975,246.000351 
	C137.274796,252.477676 153.432297,255.932098 169.849808,257.495514 
	C178.024460,258.273956 186.679169,261.122833 195.008759,256.062927 
	C193.470261,252.027054 191.987946,247.987640 190.375900,244.000687 
	C189.884140,242.784454 188.792679,241.036270 187.528900,241.855362 
	C184.638168,243.728882 180.192947,243.603012 179.089859,247.634232 
	C179.473709,249.694946 181.982376,249.775162 182.038483,252.035400 
	C178.638702,253.163345 176.083679,251.103333 173.383179,249.754974 
	C172.342285,249.235275 171.168991,248.604156 171.199371,247.268967 
	C171.235992,245.659027 172.643936,245.257111 173.889908,244.717545 
	C176.713867,243.494644 180.140320,244.309311 183.288437,241.912048 
	C176.716858,240.170624 170.604889,238.811050 164.667938,236.906006 
	C158.498871,234.926468 152.362564,232.681915 147.093628,228.725540 
	C142.245941,225.085464 136.772247,222.134262 133.304184,216.869293 
	C136.241562,217.894669 138.845535,219.333969 141.362991,220.911331 
	C153.950989,228.798691 167.480881,234.011581 182.338135,235.547989 
	C184.280441,235.748840 185.593979,235.505905 185.649109,233.104401 
	C185.789368,226.992767 182.798187,223.095398 176.796188,221.005814 
	C164.343262,216.670319 152.113342,211.776764 141.295898,204.041214 
	C134.849548,199.431442 128.878891,194.277115 125.126617,186.957077 
	C140.991638,201.302628 159.309464,210.896454 180.991531,217.181320 
	C177.577530,209.425858 174.523849,203.018555 171.944199,196.425781 
	C170.450073,192.607224 168.084183,189.914459 164.586853,188.003708 
	C156.960068,183.836853 149.935165,178.786087 142.606705,172.926193 
M482.420441,191.729630 
	C480.709442,199.584076 476.834412,206.832092 475.517944,214.641663 
	C476.922729,215.590347 477.883575,215.014313 478.768646,214.705017 
	C493.016479,209.725708 506.211548,202.813065 518.019775,193.333878 
	C520.492798,191.348648 522.640930,188.583099 526.534668,188.785446 
	C526.534668,189.552826 526.665527,190.073181 526.504028,190.476440 
	C526.262756,191.078903 525.923218,191.726273 525.439880,192.134964 
	C517.835693,198.564484 510.783844,205.733719 501.454895,209.845352 
	C493.082062,213.535538 484.733429,217.282150 476.410583,221.083755 
	C472.078796,223.062378 469.662231,229.794235 471.552551,234.242676 
	C473.330811,234.186768 473.115845,231.667557 475.239258,231.544556 
	C478.522583,234.708969 482.524536,233.959564 486.653656,232.702347 
	C495.748260,229.933212 504.645264,226.809845 512.697815,221.533463 
	C516.481201,219.054474 520.167297,216.250687 525.784973,214.159592 
	C510.600067,230.353592 492.017822,237.064636 471.732117,241.670044 
	C476.706909,244.971237 482.282990,242.458679 486.956604,246.594604 
	C480.196014,251.877090 472.310394,253.682159 464.569244,256.348022 
	C466.757935,258.357056 469.088165,258.719971 471.384369,258.458679 
	C478.323853,257.668976 485.315460,257.834686 492.257507,256.738037 
	C506.942963,254.418167 521.369202,251.209549 534.809326,244.734390 
	C543.636841,240.481522 551.131470,234.411758 555.577637,225.360123 
	C556.544861,223.390945 557.873474,220.780106 555.462036,218.949844 
	C553.306213,217.313599 551.124390,218.611130 548.993164,219.788879 
	C542.297302,223.489090 535.540283,227.081360 528.753906,230.613434 
	C527.155151,231.445541 525.448730,232.731552 523.513000,231.644608 
	C529.967285,222.688904 540.143860,217.883820 546.289795,208.989761 
	C552.519104,199.975098 556.439453,190.352615 553.607666,178.904327 
	C547.340942,186.137695 544.094604,196.338531 532.911255,198.284714 
	C532.641479,195.733704 534.403503,194.728836 535.481995,193.351120 
	C545.668213,180.338623 551.453857,166.030762 547.610962,149.260040 
	C546.502441,144.422516 545.192993,139.261826 540.230103,136.450821 
	C539.821472,136.836853 539.522339,137.022339 539.356140,137.290253 
	C528.488586,154.810379 514.429260,169.131470 497.258423,180.619080 
	C492.336548,183.911880 486.751038,186.480560 482.420441,191.729630 
M158.569199,286.194275 
	C153.992584,285.337524 149.401855,284.549011 144.842972,283.606445 
	C139.321320,282.464813 134.387741,283.547699 129.946915,286.928925 
	C137.006683,305.923279 174.278046,310.291199 198.213837,298.051544 
	C197.873642,289.607239 200.157394,287.126984 207.394974,288.427032 
	C206.621704,289.598053 205.877228,290.659729 205.203186,291.764435 
	C204.517334,292.888458 203.678207,293.968475 203.779602,295.406586 
	C208.385941,299.235626 210.364044,299.008759 217.227661,293.864319 
	C222.905716,289.608490 223.357346,286.831909 218.086639,282.426422 
	C212.226501,277.528259 207.256760,271.868805 202.467300,266.028961 
	C200.499680,263.629791 198.286743,263.006134 195.472610,263.308319 
	C184.804962,264.453827 174.286026,262.374329 163.716217,261.665710 
	C146.520493,260.512909 130.186325,254.926270 113.518898,251.068954 
	C111.785248,250.667725 109.887505,249.492661 108.431679,251.291809 
	C106.853539,253.242142 108.168365,255.050766 109.270958,256.744965 
	C117.519035,269.418457 129.634720,276.028168 144.146851,278.629059 
	C151.174088,279.888489 158.271210,281.167572 165.378021,281.471405 
	C174.632568,281.867126 184.051102,283.957916 193.158676,281.370575 
	C197.906128,280.021881 202.055222,281.541687 206.546280,281.671509 
	C204.666962,282.830719 202.337830,283.032593 200.859436,284.259521 
	C196.368881,287.986328 191.155258,288.071014 185.804840,288.208405 
	C176.949158,288.435730 168.207504,287.336853 158.569199,286.194275 
M406.976257,334.495544 
	C411.575745,342.922333 411.575745,342.922333 417.576080,340.257385 
	C419.785339,343.254608 420.670654,346.777802 421.566956,350.322632 
	C422.097443,352.420563 423.390076,353.834229 425.770782,353.917419 
	C427.907410,353.992096 429.464783,353.433960 430.739532,351.405243 
	C433.287170,347.350952 434.610535,343.129333 434.864624,338.301758 
	C435.478394,326.641022 431.858826,315.969482 428.753967,304.949310 
	C424.502930,289.861115 418.085846,275.982178 410.099365,262.668396 
	C407.063934,257.608215 403.260010,253.195435 398.492767,249.753922 
	C396.091248,248.020248 393.275452,246.531418 390.129700,248.107727 
	C387.078003,249.636902 386.112030,252.381516 386.234650,255.606537 
	C386.329315,258.096344 386.158295,260.654236 386.671295,263.061218 
	C391.790131,287.081421 395.564178,311.490265 406.976257,334.495544 
M470.957855,204.612213 
	C472.296753,201.711197 473.147675,198.767471 471.837280,195.339951 
	C470.748993,195.686752 469.761322,195.853027 468.916443,196.293320 
	C458.432709,201.756531 448.291656,207.805420 438.505890,214.433762 
	C433.426331,217.874359 429.474426,222.479752 427.414490,228.214676 
	C424.352844,236.738647 419.212311,243.692673 412.813904,249.884842 
	C411.600922,251.058777 410.305054,252.346603 410.930023,254.203110 
	C414.085388,263.576172 419.458344,271.675079 425.552094,280.183350 
	C434.453247,272.341248 442.881195,264.937073 448.393280,254.827606 
	C457.083496,238.889404 463.978516,222.141312 470.957855,204.612213 
M209.706116,255.791336 
	C214.411026,263.430176 220.797440,269.422272 228.016891,274.627563 
	C230.868088,276.683319 232.654831,276.372528 234.057556,272.907471 
	C236.051941,267.980896 238.136246,263.049927 240.695374,258.403534 
	C243.605927,253.119095 244.101044,248.664093 238.881760,244.456711 
	C237.298904,243.180740 236.562653,240.864731 235.409943,239.043228 
	C230.493820,231.274918 228.024277,222.002518 219.706863,216.349136 
	C210.468719,210.069916 201.286743,203.795135 191.006210,199.335083 
	C187.629578,197.870178 184.721451,195.194763 180.934860,194.875061 
	C180.183395,196.295609 180.852921,197.141953 181.168533,198.064362 
	C184.947006,209.107452 190.409775,219.382690 195.658966,229.749603 
	C200.006195,238.335190 203.613663,247.323441 209.706116,255.791336 
M465.274658,281.290771 
	C472.314636,283.722595 479.465363,282.057404 486.559418,281.777069 
	C498.044769,281.323151 509.395294,279.658478 520.398804,276.337463 
	C531.492554,272.989227 541.187744,267.363220 547.274353,256.993011 
	C548.272034,255.293182 550.553772,253.304977 548.750977,251.208054 
	C547.219238,249.426483 544.669922,250.161224 542.609863,250.752914 
	C536.546570,252.494431 530.596924,254.681778 524.472473,256.151093 
	C506.826782,260.384521 488.976257,262.989441 470.757996,263.419220 
	C466.121429,263.528595 460.529724,260.989502 456.574493,265.446808 
	C453.254456,269.188293 450.440948,273.379211 447.222809,277.608215 
	C451.430054,279.764374 455.047516,281.220856 459.219727,280.189087 
	C461.073944,279.730560 462.852631,279.988464 465.274658,281.290771 
M354.450165,516.958801 
	C358.322266,513.805054 362.313019,510.783844 366.029053,507.455811 
	C369.007568,504.788208 368.361176,501.154236 364.828278,499.285828 
	C361.148376,497.339661 357.908630,498.507324 355.361267,501.283875 
	C352.555664,504.341858 350.277283,507.881195 347.497681,510.966156 
	C345.294037,513.411987 343.738586,516.654358 339.576111,518.322144 
	C340.172211,512.387817 340.750183,507.147522 341.212189,501.897003 
	C341.721619,496.107971 342.519684,490.304871 342.450287,484.516785 
	C342.393646,479.788971 337.669525,476.627991 332.825439,477.438965 
	C328.150452,478.221680 327.331329,481.107056 328.014008,485.516571 
	C328.801453,490.602661 328.359833,495.814392 327.761139,500.960022 
	C326.243744,514.001831 325.673584,527.142151 323.511444,540.122253 
	C322.841003,544.147034 325.877686,547.084412 330.465424,547.563232 
	C334.769501,548.012329 337.299042,545.868652 337.721619,541.451477 
	C338.022766,538.303345 338.382599,535.160706 338.678711,532.012146 
	C338.862488,530.058472 339.549438,528.298828 341.464813,527.647583 
	C343.471771,526.965271 344.377716,528.773315 345.404297,530.036499 
	C349.077362,534.556091 352.430115,539.382141 356.463715,543.550781 
	C361.432770,548.686279 367.506287,547.660400 371.545227,541.236938 
	C365.509460,535.865173 360.876190,529.131409 355.523071,523.008850 
	C354.205048,521.501343 351.965973,520.027954 354.450165,516.958801 
M205.235657,473.190308 
	C192.760040,470.549347 181.838867,473.707642 172.329346,482.052643 
	C160.906616,492.076508 155.962173,510.273529 161.170624,523.018982 
	C166.095520,535.070557 179.674561,541.396240 194.141235,538.337646 
	C199.595749,537.184387 204.701584,535.239075 208.771866,531.237549 
	C210.159576,529.873230 211.094818,528.166382 209.829544,526.329712 
	C208.591690,524.532898 206.882889,525.392273 205.336334,526.065247 
	C203.047424,527.061218 200.836014,528.304382 198.465714,529.032410 
	C187.954575,532.260986 179.135178,528.178406 176.271652,518.907776 
	C172.764160,507.552216 178.550461,489.784607 188.115051,482.858368 
	C192.012466,480.036041 196.291916,478.065521 201.174423,480.030182 
	C205.914505,481.937592 206.003128,486.184875 206.140533,490.508331 
	C206.271454,494.627655 209.616180,496.546356 213.565002,495.146454 
	C219.414047,493.072937 221.400787,486.125580 217.579468,480.687836 
	C214.770248,476.690338 210.715317,474.483917 205.235657,473.190308 
M234.965500,532.755554 
	C231.338638,530.087402 232.637695,526.528137 233.375290,523.190063 
	C234.914078,516.226013 238.115372,509.657410 238.645813,502.466888 
	C238.981567,497.915833 236.394669,495.564941 231.684601,495.290649 
	C227.271744,495.033630 224.558640,496.782684 224.383362,501.394073 
	C224.242844,505.090942 223.268417,508.595306 222.470810,512.161499 
	C221.275253,517.507202 218.701492,522.488037 218.292267,528.030457 
	C217.924271,533.014709 218.178757,537.878784 223.106766,540.764954 
	C227.948318,543.600525 232.946579,543.408203 237.829590,540.701172 
	C240.709076,539.104858 243.542892,537.426086 246.672134,535.626343 
	C247.122894,537.068176 247.389847,538.174622 247.808838,539.220154 
	C250.096893,544.929932 256.496552,547.253174 261.791321,544.196106 
	C263.910645,542.972534 265.999390,541.067566 263.743286,538.645020 
	C260.842133,535.529907 261.518219,532.286133 262.324341,528.863159 
	C264.112396,521.270386 266.024170,513.705688 267.717834,506.092224 
	C268.715759,501.606201 266.512482,499.022949 262.141266,498.417023 
	C257.935669,497.834106 255.196106,499.399292 254.187897,503.931702 
	C252.673965,510.737549 250.964828,517.515015 248.970886,524.194824 
	C247.059097,530.599365 242.716858,533.301025 234.965500,532.755554 
M386.234924,541.417603 
	C391.350281,543.984558 396.810089,544.204407 402.333374,543.612488 
	C415.647156,542.185608 426.336121,528.680359 424.511078,515.699158 
	C422.527008,501.586792 411.445129,493.901886 396.612274,496.352203 
	C385.405609,498.203430 377.270416,505.879944 374.815002,516.920593 
	C372.616425,526.806030 376.110840,534.649780 386.234924,541.417603 
M477.768646,524.177063 
	C482.191956,515.270325 482.204315,506.396881 476.308838,498.292847 
	C464.816498,482.495361 439.570129,489.123047 432.969147,503.867767 
	C425.275726,521.052612 436.906952,538.806091 455.455231,537.581360 
	C464.684265,536.972107 472.349854,532.949585 477.768646,524.177063 
M345.204163,439.061859 
	C344.466644,437.771515 343.292023,437.402466 341.875885,437.256470 
	C332.937531,436.334808 324.079620,435.001526 315.635895,431.722015 
	C314.507751,431.283844 313.121460,430.967010 312.271484,431.716980 
	C307.404022,436.011871 301.156708,438.395325 296.630768,443.151825 
	C294.727631,445.152008 294.996796,446.901764 296.774658,448.782959 
	C298.699341,450.819519 301.384369,452.423828 302.009277,455.306793 
	C302.718628,458.579071 304.874542,458.797150 307.525452,459.033722 
	C322.482513,460.368683 337.419861,459.207428 352.362183,458.801331 
	C353.598938,458.767761 355.086731,459.122192 356.206299,457.336700 
	C353.432800,451.162018 349.020355,445.718262 345.204163,439.061859 
M307.214050,544.804077 
	C310.846375,542.859680 314.516174,540.943726 314.384796,535.694763 
	C311.350494,535.170227 309.370972,536.954834 307.119568,537.768127 
	C301.572144,539.772156 296.099945,540.683960 291.222107,536.199036 
	C289.591858,534.700134 288.087219,532.802673 289.015869,530.508423 
	C289.827881,528.502319 292.097168,528.827820 293.878662,528.808472 
	C300.350830,528.738098 306.430634,527.174500 311.881531,523.725403 
	C316.343994,520.901794 319.412109,516.950684 318.528290,511.292297 
	C317.652161,505.683167 313.629700,502.830658 308.537720,501.311279 
	C294.052032,496.989014 277.042114,507.825806 274.252075,523.107056 
	C271.891907,536.034119 278.476135,545.270264 291.468933,547.319824 
	C296.728577,548.149536 301.739014,547.440552 307.214050,544.804077 
M484.105286,287.820923 
	C475.851624,288.394562 467.598297,288.563599 458.987000,287.249451 
	C459.693970,291.107269 462.210663,294.108826 460.299164,297.557800 
	C466.410919,300.602753 472.514496,302.134338 478.732819,303.324799 
	C494.341797,306.312988 509.249451,305.516510 522.352600,295.188995 
	C525.477661,292.725983 528.463135,290.074799 529.130981,285.629822 
	C525.815552,283.485596 522.221436,283.225311 518.559021,283.145844 
	C507.136963,282.898071 496.371124,287.423828 484.105286,287.820923 
M466.195221,305.470032 
	C460.474304,304.048401 455.318085,299.528290 448.389313,302.124146 
	C451.082916,307.988373 453.470337,313.625580 456.237335,319.069855 
	C458.417084,323.358643 460.894196,327.523132 463.560333,331.529083 
	C465.553009,334.523071 468.518463,334.678741 471.444824,332.792786 
	C474.592041,330.764496 472.774872,328.650879 471.459045,326.455078 
	C470.365387,324.629944 467.865601,323.391510 468.689453,319.845551 
	C480.850403,325.227844 492.787476,328.971771 502.602814,316.265472 
	C500.949585,313.292633 498.569366,312.438934 496.080841,312.172668 
	C486.120392,311.106720 476.422516,308.925018 466.195221,305.470032 
M166.462570,313.131805 
	C163.761108,313.759796 161.034027,314.326599 158.709122,316.000427 
	C163.053986,322.968567 172.307526,326.584045 182.023361,325.756104 
	C197.074066,324.473511 204.471329,314.538269 210.378769,300.383453 
	C195.280624,304.764496 181.254364,308.834534 166.462570,313.131805 
M219.994400,325.171539 
	C219.787949,319.054291 218.604050,315.112946 215.450241,309.973206 
	C215.391571,309.877594 215.510696,309.672882 215.576950,309.391113 
	C217.155090,308.891357 219.354080,311.504883 220.375076,309.208160 
	C222.649490,304.091888 225.323990,298.986603 225.324768,292.542145 
	C221.922302,294.050354 220.452545,296.285248 218.919006,298.395813 
	C211.672073,308.369507 205.133774,318.788055 199.528610,329.776184 
	C197.964828,332.841736 196.764938,336.008301 199.843155,338.905365 
	C202.515854,341.420807 208.386185,341.711914 211.420898,339.310089 
	C212.927094,338.118011 214.357437,337.158997 216.310074,337.231201 
	C218.615906,337.316406 219.435181,335.908478 219.968750,333.929932 
	C220.682938,331.281677 220.716812,328.678070 219.994400,325.171539 
M446.825806,310.573792 
	C442.751892,303.107910 440.259918,294.372009 431.355957,290.418182 
	C429.603546,292.881348 430.325073,294.781372 431.295654,296.513641 
	C433.566193,300.566040 435.999207,304.527130 438.327362,308.547791 
	C438.982422,309.679077 440.153320,311.785370 439.451965,312.083099 
	C435.230591,313.875214 438.962219,315.705963 439.272217,317.384766 
	C439.691010,319.652588 440.474182,321.852295 441.083252,324.086060 
	C442.216339,328.241760 443.105804,332.481598 444.523590,336.537201 
	C446.111542,341.079834 450.320221,342.636719 455.141693,340.904785 
	C459.538910,339.325195 460.373383,337.203674 458.306244,331.787262 
	C455.507019,324.452576 451.072327,317.976196 446.825806,310.573792 
M300.412048,152.278961 
	C295.298218,138.452301 277.882080,127.734108 260.207794,127.868401 
	C267.422516,131.939972 273.701660,136.663956 280.910400,139.966217 
	C277.678467,141.009018 275.556488,137.532959 271.438507,138.593979 
	C280.192657,145.040833 288.590363,150.367432 298.087097,153.834198 
	C298.987946,154.163040 300.104736,154.295074 300.412048,152.278961 
M277.043213,160.473572 
	C280.425568,162.693039 283.375671,166.074860 288.204010,163.625320 
	C291.767212,161.817642 296.299591,162.114059 299.927216,158.361084 
	C290.862030,154.523544 282.362030,150.888306 273.822266,147.348877 
	C272.500702,146.801117 271.181396,147.337952 270.217438,148.439606 
	C269.078613,149.741074 269.179504,151.164474 269.897339,152.626877 
	C271.408020,155.704361 274.148285,157.697723 277.043213,160.473572 
M449.602112,296.840240 
	C451.867889,296.601532 455.638031,296.329590 453.961212,293.441620 
	C451.730682,289.600006 448.838257,285.562073 444.356293,283.633606 
	C441.439056,282.378357 439.504669,284.598206 438.041107,286.475281 
	C436.289825,288.721466 438.488190,290.343750 440.071808,291.239441 
	C443.095947,292.949890 445.241974,296.039581 449.602112,296.840240 
M403.125092,429.942688 
	C402.181122,431.849762 401.246857,433.761688 400.290375,435.662476 
	C399.382019,437.467712 398.151520,439.843414 400.398956,440.893982 
	C403.239929,442.222046 406.412140,443.589966 409.737610,442.870636 
	C410.737549,442.654327 410.833740,441.179932 410.264313,440.295105 
	C408.427124,437.440338 408.057831,434.123993 407.101562,430.989563 
	C406.558014,429.207886 405.677460,427.857819 403.125092,429.942688 
M333.610840,157.329071 
	C335.195190,156.286560 336.059692,155.006393 334.638306,153.265549 
	C333.674896,152.085632 332.430573,151.075851 330.801880,151.751556 
	C329.332947,152.360931 328.296448,153.684464 328.680878,155.281311 
	C329.195648,157.419373 330.976196,157.868179 333.610840,157.329071 
z"/>
<path fill="#000000" opacity="1.000000" stroke="none" 
	d="
M414.048584,308.812500 
	C414.867188,309.987671 415.897003,310.826996 414.788879,312.353027 
	C411.521149,312.097107 408.283691,310.656830 404.792694,310.875000 
	C402.878540,310.994659 401.839569,309.305115 401.360931,307.738251 
	C399.892151,302.929626 398.639008,298.055145 397.769287,292.882690 
	C402.883820,298.459412 407.632782,304.262512 414.048584,308.812500 
z"/>
<path fill="#000000" opacity="1.000000" stroke="none" 
	d="
M473.984802,272.761597 
	C472.763641,273.180389 471.829712,273.442169 470.625366,273.779785 
	C471.074219,271.434509 471.459381,269.422058 471.846039,267.401855 
	C476.345306,268.510223 476.509094,268.884186 473.984802,272.761597 
z"/>
<path fill="#000000" opacity="1.000000" stroke="none" 
	d="
M408.050903,509.340088 
	C410.566772,517.199890 411.239014,524.675842 407.324768,531.868042 
	C403.554749,538.795227 397.303467,539.165161 392.873047,532.737244 
	C388.058716,525.752319 388.383118,518.031921 390.462738,510.329834 
	C391.487396,506.534882 393.797150,503.409851 398.155548,502.745209 
	C403.188110,501.977753 405.649567,505.331512 408.050903,509.340088 
z"/>
<path fill="#000000" opacity="1.000000" stroke="none" 
	d="
M457.577454,530.482422 
	C453.227661,531.003601 450.364777,529.211731 448.587952,525.857361 
	C444.501221,518.142273 443.413116,510.106110 446.978119,501.889526 
	C450.113373,494.663422 456.317200,493.810394 461.376801,499.762787 
	C466.810608,506.155426 467.721680,520.100830 463.203583,527.120361 
	C461.949799,529.068298 460.292114,530.265076 457.577454,530.482422 
z"/>
<path fill="#000000" opacity="1.000000" stroke="none" 
	d="
M291.270569,515.482117 
	C292.545929,512.475464 294.312683,510.321808 296.578400,508.555511 
	C299.162506,506.541016 302.077637,505.601013 304.706360,507.948456 
	C307.322845,510.284943 306.660431,513.435974 305.216034,516.213745 
	C302.525757,521.387451 296.067993,524.054199 289.432587,522.874146 
	C288.824463,520.260376 290.483704,518.156616 291.270569,515.482117 
z"/>
</svg>